<svg width="15" height="15" viewBox="0 0 15 15" fill="none" xmlns="http://www.w3.org/2000/svg">
<path fill-rule="evenodd" clip-rule="evenodd" d="M14.4643 1.07143H12.8571V0H11.7857V1.07143H3.21429V0H2.14286V1.07143H0.535714L0 1.60714V14.4643L0.535714 15H14.4643L15 14.4643V1.60714L14.4643 1.07143ZM13.9286 13.9286H1.07143V4.28571H13.9286V13.9286ZM13.9286 3.21429H1.07143V2.14286H13.9286V3.21429ZM3.21429 7.5H2.14286V8.57143H3.21429V7.5ZM2.14286 9.64286H3.21429V10.7143H2.14286V9.64286ZM3.21429 11.7857H2.14286V12.8571H3.21429V11.7857ZM5.35714 7.5H6.42857V8.57143H5.35714V7.5ZM6.42857 9.64286H5.35714V10.7143H6.42857V9.64286ZM5.35714 11.7857H6.42857V12.8571H5.35714V11.7857ZM6.42857 5.35714H5.35714V6.42857H6.42857V5.35714ZM8.57143 7.5H9.64286V8.57143H8.57143V7.5ZM9.64286 9.64286H8.57143V10.7143H9.64286V9.64286ZM8.57143 11.7857H9.64286V12.8571H8.57143V11.7857ZM9.64286 5.35714H8.57143V6.42857H9.64286V5.35714ZM11.7857 7.5H12.8571V8.57143H11.7857V7.5ZM12.8571 9.64286H11.7857V10.7143H12.8571V9.64286ZM11.7857 5.35714H12.8571V6.42857H11.7857V5.35714Z" fill="#575757"/>
</svg>
