<svg width="19" height="18" viewBox="0 0 19 18" fill="none" xmlns="http://www.w3.org/2000/svg">
<path d="M18.7154 8.3882L8.96273 0.0985954C8.88786 0.0353931 8.79235 0 8.69168 0H6.40711C6.21608 0 6.12831 0.232584 6.27287 0.353933L15.313 8.03933H0.206514C0.0929315 8.03933 0 8.13034 0 8.24157V9.75843C0 9.86966 0.0929315 9.96067 0.206514 9.96067H15.3105L6.27029 17.6461C6.12573 17.7699 6.2135 18 6.40453 18H8.76654C8.81558 18 8.86463 17.9823 8.90077 17.9494L18.7154 9.6118C18.8047 9.53569 18.8764 9.4417 18.9255 9.33615C18.9746 9.23061 19 9.11598 19 9C19 8.88402 18.9746 8.76939 18.9255 8.66385C18.8764 8.5583 18.8047 8.46431 18.7154 8.3882Z" fill="#575757"/>
</svg>
