<svg width="12" height="15" viewBox="0 0 12 15" fill="none" xmlns="http://www.w3.org/2000/svg">
<path d="M1 2.12211V11.3487C1 12.0553 1.28446 12.7331 1.79081 13.2328C2.29716 13.7324 2.98392 14.0132 3.7 14.0132H9.8496C9.71486 14.3073 9.497 14.5569 9.22215 14.7319C8.9473 14.9069 8.62712 15 8.3 15H3.7C2.7187 15 1.77759 14.6153 1.0837 13.9306C0.38982 13.2458 4.86542e-08 12.3171 4.86542e-08 11.3487V3.65132C-7.81998e-05 3.32849 0.094228 3.01251 0.271604 2.74126C0.44898 2.47001 0.701893 2.25503 1 2.12211ZM6.7028 1.62952e-08C6.92611 -3.06969e-05 7.14723 0.0433552 7.35354 0.127679C7.55985 0.212003 7.74731 0.335613 7.9052 0.491447L11.502 4.04092C11.6599 4.19673 11.7852 4.38172 11.8706 4.58532C11.9561 4.78892 12 5.00713 12 5.2275V11.3487C12 11.7936 11.8209 12.2203 11.5021 12.5349C11.1833 12.8496 10.7509 13.0263 10.3 13.0263H3.7C3.24913 13.0263 2.81673 12.8496 2.49792 12.5349C2.17911 12.2203 2 11.7936 2 11.3487V1.67763C2 1.2327 2.17911 0.805984 2.49792 0.491367C2.81673 0.17675 3.24913 1.62952e-08 3.7 1.62952e-08H6.7028ZM6.4 0.986842H3.7C3.51435 0.986842 3.3363 1.05962 3.20503 1.18917C3.07375 1.31872 3 1.49442 3 1.67763V11.3487C3 11.7304 3.3136 12.0395 3.7 12.0395H10.3C10.4857 12.0395 10.6637 11.9667 10.795 11.8371C10.9263 11.7076 11 11.5319 11 11.3487V5.52632H8.1C7.6634 5.52632 7.24353 5.36055 6.92741 5.06336C6.6113 4.76617 6.42316 4.36035 6.402 3.93L6.4 3.84868V0.986842ZM10.5928 4.53947L7.4 1.38868V3.84868C7.40001 4.02211 7.46613 4.18919 7.58522 4.31673C7.70431 4.44427 7.86765 4.52293 8.0428 4.53711L8.1 4.53947H10.5928Z" fill="#575757"/>
</svg>
