<svg width="15" height="15" viewBox="0 0 15 15" fill="none" xmlns="http://www.w3.org/2000/svg">
<path d="M8.00983 14.7753L14.9178 7.07584C14.9705 7.01673 15 6.94133 15 6.86185V5.05824C15 4.90743 14.8062 4.83814 14.7051 4.95227L8.30056 12.0892V0.163038C8.30056 0.073367 8.22472 0 8.13202 0L6.86798 0C6.77528 0 6.69944 0.073367 6.69944 0.163038V12.0872L0.294944 4.95023C0.191713 4.83611 0 4.9054 0 5.05621V6.92095C0 6.95967 0.0147466 6.99839 0.0421343 7.02692L6.99017 14.7753C7.05359 14.8458 7.13192 14.9024 7.21987 14.9412C7.30782 14.9799 7.40335 15 7.5 15C7.59665 15 7.69218 14.9799 7.78013 14.9412C7.86808 14.9024 7.94641 14.8458 8.00983 14.7753Z" fill="#575757"/>
</svg>
