<svg width="29" height="20" viewBox="0 0 29 20" fill="none" xmlns="http://www.w3.org/2000/svg">
<path fill-rule="evenodd" clip-rule="evenodd" d="M14.5 0C7.90909 0 2.28045 4.14667 0 10C2.28045 15.8533 7.90909 20 14.5 20C21.0909 20 26.7195 15.8533 29 10C26.7195 4.14667 21.0909 0 14.5 0ZM14.5 16.6667C10.8618 16.6667 7.90909 13.68 7.90909 10C7.90909 6.32004 10.8618 3.33337 14.5 3.33337C18.1382 3.33337 21.0909 6.32004 21.0909 10C21.0909 13.68 18.1382 16.6667 14.5 16.6667ZM14.5 6C12.3118 6 10.5455 7.78667 10.5455 10C10.5455 12.2133 12.3118 14 14.5 14C16.6882 14 18.4545 12.2133 18.4545 10C18.4545 7.78667 16.6882 6 14.5 6Z" fill="#575757" fill-opacity="0.5"/>
</svg>
