<svg width="15" height="15" fill="none" xmlns="http://www.w3.org/2000/svg"><path fill-rule="evenodd" clip-rule="evenodd" d="M14.464 1.071h-1.607V0h-1.071v1.071H3.214V0H2.143v1.071H.536L0 1.607v12.857L.536 15h13.928l.536-.536V1.607l-.536-.536zM13.93 13.93H1.07V4.286h12.86v9.643zm0-10.715H1.07V2.143h12.86v1.071zM3.214 7.5H2.143v1.071h1.071V7.5zM2.143 9.643h1.071v1.071H2.143V9.643zm1.071 2.143H2.143v1.071h1.071v-1.071zM5.357 7.5H6.43v1.071H5.357V7.5zM6.43 9.643H5.357v1.071H6.43V9.643zm-1.072 2.143H6.43v1.071H5.357v-1.071zM6.43 5.357H5.357V6.43H6.43V5.357zM8.57 7.5h1.072v1.071H8.57V7.5zm1.072 2.143H8.57v1.071h1.072V9.643zM8.57 11.786h1.072v1.071H8.57v-1.071zm1.072-6.429H8.57V6.43h1.072V5.357zM11.786 7.5h1.071v1.071h-1.071V7.5zm1.071 2.143h-1.071v1.071h1.071V9.643zm-1.071-4.286h1.071V6.43h-1.071V5.357z" fill="#575757"/></svg>