<svg width="12" height="15" fill="none" xmlns="http://www.w3.org/2000/svg"><path d="M1 2.122v9.227c0 .706.284 1.384.79 1.884.507.5 1.194.78 1.91.78h6.15a1.685 1.685 0 01-.628.719A1.717 1.717 0 018.3 15H3.7a3.725 3.725 0 01-2.616-1.07A3.627 3.627 0 010 11.35v-7.7c0-.323.094-.638.272-.91.177-.271.43-.486.728-.619zM6.703 0a1.72 1.72 0 011.202.491l3.597 3.55A1.676 1.676 0 0112 5.227v6.122c0 .445-.18.871-.498 1.186a1.711 1.711 0 01-1.202.491H3.7c-.45 0-.883-.176-1.202-.491A1.666 1.666 0 012 11.349V1.678c0-.445.18-.872.498-1.187A1.712 1.712 0 013.7 0h3.003zM6.4.987H3.7a.705.705 0 00-.495.202.686.686 0 00-.205.489v9.67c0 .382.314.691.7.691h6.6a.705.705 0 00.495-.202.686.686 0 00.205-.488V5.526H8.1a1.71 1.71 0 01-1.173-.463 1.668 1.668 0 01-.525-1.133L6.4 3.849V.987zm4.193 3.552L7.4 1.39v2.46c0 .173.066.34.185.468.12.127.283.206.458.22l.057.002h2.493z" fill="#575757"/></svg>