<svg width="15" height="14" fill="none" xmlns="http://www.w3.org/2000/svg"><path d="M7.5 13.95c-3.6 0-6.5-2.911-6.5-6.525 0-1.606.6-3.112 1.65-4.317l.75.653A5.49 5.49 0 002 7.425a5.495 5.495 0 005.5 5.521c.8 0 1.55-.15 2.3-.502l.4.904c-.85.401-1.75.602-2.7.602zm4.85-2.158l-.75-.653A5.49 5.49 0 0013 7.475a5.495 5.495 0 00-5.5-5.521c-.8 0-1.55.15-2.3.502l-.4-.904A6.244 6.244 0 017.5.95c3.6 0 6.5 2.911 6.5 6.525 0 1.556-.6 3.112-1.65 4.317z" fill="#575757"/><path d="M4 6.923H3V3.91H0V2.907h4v4.016zm11 5.019h-4V7.927h1v3.011h3v1.004z" fill="#575757"/></svg>