<svg width="15" height="15" fill="none" xmlns="http://www.w3.org/2000/svg"><path d="M3.375 3.75H.625A.626.626 0 000 4.375v10A.626.626 0 00.625 15h2.75A.626.626 0 004 14.375v-10a.626.626 0 00-.625-.625zM3 14H1V4.75h2V14zm5.875-7h-2.75a.626.626 0 00-.625.625v6.75a.626.626 0 00.625.625h2.75a.626.626 0 00.625-.625v-6.75A.626.626 0 008.875 7zM8.5 14h-2V8h2v6zm5.875-14h-2.75A.626.626 0 0011 .625v13.75a.625.625 0 00.625.625h2.75a.625.625 0 00.625-.625V.625A.626.626 0 0014.375 0zM14 14h-2V1h2v13z" fill="#575757"/></svg>