<svg width="20" height="20" fill="none" xmlns="http://www.w3.org/2000/svg"><path d="M16.506 14.766c.954-.85 1.494-1.983 1.494-3.159 0-1.25-.585-2.418-1.647-3.29C15.319 7.466 13.95 7 12.5 7s-2.82.468-3.853 1.317C7.585 9.189 7 10.357 7 11.607s.585 2.418 1.647 3.29c1.034.85 2.402 1.317 3.853 1.317a6.6 6.6 0 00.58-.025l.33.285A6.245 6.245 0 0017.5 18h.5v-1.064l-.147-.147a6.224 6.224 0 01-1.347-2.023zm-2.44.953l-.662-.573-.22.026a5.658 5.658 0 01-.684.042c-2.481 0-4.5-1.618-4.5-3.607S10.019 8 12.5 8 17 9.618 17 11.607c0 .991-.494 1.916-1.392 2.605l-.288.22.133.377a7.229 7.229 0 001.184 2.12 5.244 5.244 0 01-2.572-1.21z" fill="#575757"/><path d="M4.38 12.421a6.89 6.89 0 001.089-1.97l.131-.374-.287-.22C4.466 9.207 4 8.335 4 7.402 4 5.526 5.907 4 8.25 4c1.724 0 3.211.826 3.877 2.01a7.689 7.689 0 011.118.026c-.258-.666-.705-1.275-1.319-1.78C10.94 3.446 9.634 3 8.25 3c-1.384 0-2.69.446-3.676 1.256C3.559 5.09 3 6.207 3 7.402c0 1.118.511 2.196 1.414 3.007a5.888 5.888 0 01-1.268 1.898L3 12.453V13.5h.5a5.96 5.96 0 002.663-.629 4.915 4.915 0 01-.158-1.051 4.958 4.958 0 01-1.624.601z" fill="#575757"/></svg>