<svg width="15" height="15" viewBox="0 0 15 15" fill="none" xmlns="http://www.w3.org/2000/svg">
<path d="M7.48594 4.61719C7.84838 4.61719 8.14219 4.32338 8.14219 3.96094C8.14219 3.5985 7.84838 3.30469 7.48594 3.30469C7.1235 3.30469 6.82969 3.5985 6.82969 3.96094C6.82969 4.32338 7.1235 4.61719 7.48594 4.61719Z" fill="#575757"/>
<path d="M8.90625 10.7813H7.96875V5.67188H6.5625C6.43818 5.67188 6.31895 5.72126 6.23105 5.80917C6.14314 5.89708 6.09375 6.01631 6.09375 6.14063C6.09375 6.26495 6.14314 6.38418 6.23105 6.47208C6.31895 6.55999 6.43818 6.60938 6.5625 6.60938H7.03125V10.7813H6.09375C5.96943 10.7813 5.8502 10.8306 5.7623 10.9185C5.67439 11.0065 5.625 11.1257 5.625 11.25C5.625 11.3743 5.67439 11.4935 5.7623 11.5815C5.8502 11.6694 5.96943 11.7188 6.09375 11.7188H8.90625C9.03057 11.7188 9.1498 11.6694 9.23771 11.5815C9.32562 11.4935 9.375 11.3743 9.375 11.25C9.375 11.1257 9.32562 11.0065 9.23771 10.9185C9.1498 10.8306 9.03057 10.7813 8.90625 10.7813Z" fill="#575757"/>
<path d="M7.5 15C6.01664 15 4.56659 14.5601 3.33323 13.736C2.09986 12.9119 1.13856 11.7406 0.570907 10.3701C0.00324961 8.99968 -0.145275 7.49168 0.144114 6.03682C0.433503 4.58197 1.14781 3.2456 2.1967 2.1967C3.2456 1.14781 4.58197 0.433503 6.03682 0.144114C7.49168 -0.145275 8.99968 0.00324961 10.3701 0.570907C11.7406 1.13856 12.9119 2.09986 13.736 3.33323C14.5601 4.56659 15 6.01664 15 7.5C15 9.48913 14.2098 11.3968 12.8033 12.8033C11.3968 14.2098 9.48913 15 7.5 15ZM7.5 0.937503C6.20206 0.937503 4.93327 1.32239 3.85407 2.04348C2.77488 2.76458 1.93374 3.7895 1.43704 4.98864C0.940344 6.18778 0.810384 7.50728 1.0636 8.78028C1.31682 10.0533 1.94183 11.2226 2.85961 12.1404C3.7774 13.0582 4.94672 13.6832 6.21972 13.9364C7.49272 14.1896 8.81222 14.0597 10.0114 13.563C11.2105 13.0663 12.2354 12.2251 12.9565 11.1459C13.6776 10.0667 14.0625 8.79794 14.0625 7.5C14.0625 5.75952 13.3711 4.09032 12.1404 2.85961C10.9097 1.62891 9.24048 0.937503 7.5 0.937503Z" fill="#575757"/>
</svg>
