<svg width="15" height="14" viewBox="0 0 15 14" fill="none" xmlns="http://www.w3.org/2000/svg">
<path d="M7.5 13.95C3.9 13.95 1 11.0388 1 7.42485C1 5.81868 1.6 4.31289 2.65 3.10825L3.4 3.76076C2.5 4.76462 2 6.06964 2 7.42485C2 10.4866 4.45 12.9461 7.5 12.9461C8.3 12.9461 9.05 12.7955 9.8 12.4442L10.2 13.3476C9.35 13.7492 8.45 13.95 7.5 13.95Z" fill="#575757"/>
<path d="M12.35 11.7917L11.6 11.1391C12.5 10.1353 13 8.83026 13 7.47505C13 4.41327 10.55 1.95381 7.5 1.95381C6.7 1.95381 5.95 2.10439 5.2 2.45574L4.8 1.55227C5.65 1.15072 6.55 0.949951 7.5 0.949951C11.1 0.949951 14 3.86115 14 7.47505C14 9.03103 13.4 10.587 12.35 11.7917Z" fill="#575757"/>
<path d="M4 6.92292H3V3.91134H0V2.90748H4V6.92292Z" fill="#575757"/>
<path d="M15 11.9422H11V7.92679H12V10.9384H15V11.9422Z" fill="#575757"/>
</svg>
