<svg width="15" height="15" viewBox="0 0 15 15" fill="none" xmlns="http://www.w3.org/2000/svg">
<path d="M4 6.72414H5V7.75862H4V6.72414Z" fill="#575757"/>
<path d="M7 6.72414H8V7.75862H7V6.72414Z" fill="#575757"/>
<path d="M10 6.72414H11V7.75862H10V6.72414Z" fill="#575757"/>
<path d="M14 0H1C0.734875 0.000308031 0.480694 0.109397 0.293222 0.303333C0.10575 0.49727 0.000297764 0.760215 0 1.03448V10.3448C0.000297764 10.6191 0.10575 10.882 0.293222 11.076C0.480694 11.2699 0.734875 11.379 1 11.3793H3V15H3.95709L7.45709 11.3793H14C14.2651 11.379 14.5193 11.2699 14.7068 11.076C14.8942 10.882 14.9997 10.6191 15 10.3448V1.03448C14.9997 0.760215 14.8942 0.49727 14.7068 0.303333C14.5193 0.109397 14.2651 0.000308031 14 0ZM14 10.3448H7.04291L4 13.4927V10.3448H1V1.03448H14V10.3448Z" fill="#575757"/>
</svg>
