<svg width="15" height="15" viewBox="0 0 15 15" fill="none" xmlns="http://www.w3.org/2000/svg">
<path d="M3.375 3.75H0.625C0.459298 3.75019 0.300437 3.8161 0.183268 3.93327C0.0660993 4.05044 0.000190229 4.2093 0 4.375V14.375C0.000190229 14.5407 0.0660993 14.6996 0.183268 14.8167C0.300437 14.9339 0.459298 14.9998 0.625 15H3.375C3.5407 14.9998 3.69956 14.9339 3.81673 14.8167C3.9339 14.6996 3.99981 14.5407 4 14.375V4.375C3.99981 4.2093 3.9339 4.05044 3.81673 3.93327C3.69956 3.8161 3.5407 3.75019 3.375 3.75ZM3 14H1V4.75H3V14Z" fill="#575757"/>
<path d="M8.875 7H6.125C5.9593 7.00019 5.80044 7.0661 5.68327 7.18327C5.5661 7.30044 5.50019 7.4593 5.5 7.625V14.375C5.50019 14.5407 5.5661 14.6996 5.68327 14.8167C5.80044 14.9339 5.9593 14.9998 6.125 15H8.875C9.0407 14.9998 9.19956 14.9339 9.31673 14.8167C9.4339 14.6996 9.49981 14.5407 9.5 14.375V7.625C9.49981 7.4593 9.4339 7.30044 9.31673 7.18327C9.19956 7.0661 9.0407 7.00019 8.875 7ZM8.5 14H6.5V8H8.5V14Z" fill="#575757"/>
<path d="M14.375 0H11.625C11.4593 0.000190229 11.3004 0.0660993 11.1833 0.183268C11.0661 0.300437 11.0002 0.459298 11 0.625V14.375C11.0002 14.5407 11.0661 14.6996 11.1833 14.8167C11.3004 14.9339 11.4593 14.9998 11.625 15H14.375C14.5407 14.9998 14.6996 14.9339 14.8167 14.8167C14.9339 14.6996 14.9998 14.5407 15 14.375V0.625C14.9998 0.459298 14.9339 0.300437 14.8167 0.183268C14.6996 0.0660993 14.5407 0.000190229 14.375 0ZM14 14H12V1H14V14Z" fill="#575757"/>
</svg>
