<svg width="20" height="20" viewBox="0 0 20 20" fill="none" xmlns="http://www.w3.org/2000/svg">
<path d="M16.5063 14.7657C17.46 13.9157 18 12.7828 18 11.6071C18 10.3576 17.4151 9.18903 16.3529 8.31648C15.3192 7.46755 13.9509 6.99996 12.4999 6.99996C11.0489 6.99996 9.68062 7.46755 8.64703 8.31654C7.58489 9.18903 6.99996 10.3576 6.99996 11.6071C6.99996 12.8566 7.58489 14.0251 8.64703 14.8977C9.68062 15.7466 11.0489 16.2142 12.4999 16.2142C12.6932 16.2142 12.8878 16.2057 13.0807 16.1887L13.4102 16.4744C14.5456 17.4582 15.9975 17.9998 17.4998 17.9998H17.9998V16.9356L17.8534 16.7892C17.2757 16.2098 16.818 15.5222 16.5063 14.7657ZM14.0652 15.7186L13.4039 15.1455L13.1834 15.1725C12.9566 15.2002 12.7284 15.2141 12.4999 15.2142C10.0187 15.2142 7.99995 13.596 7.99995 11.6071C7.99995 9.61812 10.0187 7.99995 12.4999 7.99995C14.9811 7.99995 16.9999 9.61809 16.9999 11.6071C16.9999 12.598 16.5055 13.5231 15.6078 14.212L15.3198 14.4329L15.4527 14.809C15.725 15.5771 16.1253 16.2937 16.6365 16.9283C15.6844 16.7694 14.7946 16.3508 14.0652 15.7186Z" fill="#575757"/>
<path d="M4.38077 12.421C4.8488 11.8286 5.21628 11.1632 5.46851 10.4516L5.60038 10.0774L5.31266 9.85655C4.46617 9.207 3.99999 8.33519 3.99999 7.40174C3.99999 5.526 5.9065 3.99999 8.24995 3.99999C9.97393 3.99999 11.4614 4.82592 12.1273 6.00934C12.251 6.00334 12.3752 5.99997 12.4999 5.99997C12.7505 5.99997 12.9987 6.01212 13.2447 6.03644C12.9874 5.36973 12.5404 4.76111 11.926 4.25642C10.9397 3.44621 9.63431 3 8.24995 3C6.86558 3 5.56022 3.44621 4.57386 4.25642C3.55893 5.09013 3 6.20715 3 7.40174C3 8.52047 3.51099 9.59843 4.41405 10.4093C4.11934 11.1185 3.68873 11.7632 3.14647 12.3071L3 12.4535V13.4999H3.49999C4.42458 13.4998 5.33645 13.2845 6.16344 12.871C6.07275 12.5273 6.01962 12.1748 6.00497 11.8196C5.50303 12.1138 4.95325 12.3174 4.38077 12.421Z" fill="#575757"/>
</svg>
